<svg xmlns="http://www.w3.org/2000/svg" width="40" height="40" viewBox="0 0 40 40" fill="none">
  <g clip-path="url(#clip0_10096_4750)">
    <mask id="path-1-inside-1_10096_4750" fill="white">
      <path fill-rule="evenodd" clip-rule="evenodd" d="M8.88803 10.501H7.30116C6.86284 10.501 6.50751 10.8563 6.50751 11.2946V15.2411C6.50751 16.8724 7.49176 18.2737 8.89878 18.8837C8.89164 18.7202 8.88803 18.5557 8.88803 18.3904V10.501ZM9.62431 22.3762C6.14433 22.3452 3.33286 19.5146 3.33286 16.0273V8.13027C3.33286 7.25363 4.04351 6.54297 4.92016 6.54297H8.98958C9.34407 5.17676 10.5855 4.16797 12.0626 4.16797H27.9357C29.4127 4.16797 30.6542 5.17676 31.0087 6.54297H35.0792C35.9559 6.54297 36.6665 7.25363 36.6665 8.13027V16.0273C36.6665 19.5149 33.8544 22.3458 30.374 22.3762C28.9543 26.0691 25.6198 28.8121 21.5866 29.389V32.667H24.7655C25.6399 32.667 26.3488 33.3759 26.3488 34.2503C26.3488 35.1248 25.6399 35.8337 24.7655 35.8337H15.2337C14.3593 35.8337 13.6504 35.1248 13.6504 34.2503C13.6504 33.3759 14.3593 32.667 15.2337 32.667H18.412V29.389C14.3786 28.8122 11.044 26.0691 9.62431 22.3762ZM31.0995 18.8842C32.5071 18.2745 33.4919 16.8728 33.4919 15.2411V11.2946C33.4919 10.8563 33.1365 10.501 32.6982 10.501H31.1103V18.3904C31.1103 18.5559 31.1066 18.7205 31.0995 18.8842Z"/>
    </mask>
    <path fill-rule="evenodd" clip-rule="evenodd" d="M8.88803 10.501H7.30116C6.86284 10.501 6.50751 10.8563 6.50751 11.2946V15.2411C6.50751 16.8724 7.49176 18.2737 8.89878 18.8837C8.89164 18.7202 8.88803 18.5557 8.88803 18.3904V10.501ZM9.62431 22.3762C6.14433 22.3452 3.33286 19.5146 3.33286 16.0273V8.13027C3.33286 7.25363 4.04351 6.54297 4.92016 6.54297H8.98958C9.34407 5.17676 10.5855 4.16797 12.0626 4.16797H27.9357C29.4127 4.16797 30.6542 5.17676 31.0087 6.54297H35.0792C35.9559 6.54297 36.6665 7.25363 36.6665 8.13027V16.0273C36.6665 19.5149 33.8544 22.3458 30.374 22.3762C28.9543 26.0691 25.6198 28.8121 21.5866 29.389V32.667H24.7655C25.6399 32.667 26.3488 33.3759 26.3488 34.2503C26.3488 35.1248 25.6399 35.8337 24.7655 35.8337H15.2337C14.3593 35.8337 13.6504 35.1248 13.6504 34.2503C13.6504 33.3759 14.3593 32.667 15.2337 32.667H18.412V29.389C14.3786 28.8122 11.044 26.0691 9.62431 22.3762ZM31.0995 18.8842C32.5071 18.2745 33.4919 16.8728 33.4919 15.2411V11.2946C33.4919 10.8563 33.1365 10.501 32.6982 10.501H31.1103V18.3904C31.1103 18.5559 31.1066 18.7205 31.0995 18.8842Z" fill="url(#paint0_linear_10096_4750)"/>
    <path d="M8.88803 10.501H9.72136V9.66764H8.88803V10.501ZM8.89878 18.8837L8.56732 19.6483L9.78946 20.1781L9.73132 18.8473L8.89878 18.8837ZM9.62431 22.3762L10.4022 22.0772L10.1987 21.548L9.63174 21.5429L9.62431 22.3762ZM8.98958 6.54297V7.3763H9.63429L9.79621 6.75226L8.98958 6.54297ZM31.0087 6.54297L30.2021 6.75226L30.364 7.3763H31.0087V6.54297ZM30.374 22.3762L30.3667 21.5429L29.7996 21.5479L29.5961 22.0772L30.374 22.3762ZM21.5866 29.389L21.4686 28.5641L20.7532 28.6664V29.389H21.5866ZM21.5866 32.667H20.7532V33.5003H21.5866V32.667ZM18.412 32.667V33.5003H19.2453V32.667H18.412ZM18.412 29.389H19.2453V28.6664L18.5299 28.5641L18.412 29.389ZM31.0995 18.8842L30.2669 18.8478L30.2088 20.1781L31.4307 19.6489L31.0995 18.8842ZM31.1103 10.501V9.66764H30.2769V10.501H31.1103ZM7.30116 11.3343H8.88803V9.66764H7.30116V11.3343ZM7.34084 11.2946C7.34084 11.3165 7.32307 11.3343 7.30116 11.3343V9.66764C6.4026 9.66764 5.67417 10.3961 5.67417 11.2946H7.34084ZM7.34084 15.2411V11.2946H5.67417V15.2411H7.34084ZM9.23025 18.1191C8.11697 17.6365 7.34084 16.5285 7.34084 15.2411H5.67417C5.67417 17.2162 6.86654 18.9109 8.56732 19.6483L9.23025 18.1191ZM9.73132 18.8473C9.72471 18.6959 9.72136 18.5436 9.72136 18.3904H8.0547C8.0547 18.5679 8.05857 18.7444 8.06624 18.9201L9.73132 18.8473ZM9.72136 18.3904V10.501H8.0547V18.3904H9.72136ZM2.49952 16.0273C2.49952 19.9723 5.68 23.1744 9.61689 23.2095L9.63174 21.5429C6.60867 21.516 4.16619 19.0568 4.16619 16.0273H2.49952ZM2.49952 8.13027V16.0273H4.16619V8.13027H2.49952ZM4.92016 5.70964C3.58328 5.70964 2.49952 6.79339 2.49952 8.13027H4.16619C4.16619 7.71386 4.50375 7.3763 4.92016 7.3763V5.70964ZM8.98958 5.70964H4.92016V7.3763H8.98958V5.70964ZM9.79621 6.75226C10.0577 5.74448 10.9744 5.0013 12.0626 5.0013V3.33464C10.1967 3.33464 8.63044 4.60904 8.18296 6.33368L9.79621 6.75226ZM12.0626 5.0013H27.9357V3.33464H12.0626V5.0013ZM27.9357 5.0013C29.0239 5.0013 29.9406 5.74448 30.2021 6.75226L31.8153 6.33368C31.3678 4.60904 29.8016 3.33464 27.9357 3.33464V5.0013ZM35.0792 5.70964H31.0087V7.3763H35.0792V5.70964ZM37.4998 8.13027C37.4998 6.79339 36.4161 5.70964 35.0792 5.70964V7.3763C35.4956 7.3763 35.8332 7.71386 35.8332 8.13027H37.4998ZM37.4998 16.0273V8.13027H35.8332V16.0273H37.4998ZM30.3812 23.2095C34.3187 23.1751 37.4998 19.9727 37.4998 16.0273H35.8332C35.8332 19.0571 33.3902 21.5165 30.3667 21.5429L30.3812 23.2095ZM29.5961 22.0772C28.2827 25.4938 25.1968 28.0308 21.4686 28.5641L21.7046 30.214C26.0428 29.5934 29.626 26.6443 31.1518 22.6752L29.5961 22.0772ZM22.4199 32.667V29.389H20.7532V32.667H22.4199ZM24.7655 31.8337H21.5866V33.5003H24.7655V31.8337ZM27.1821 34.2503C27.1821 32.9156 26.1002 31.8337 24.7655 31.8337V33.5003C25.1797 33.5003 25.5155 33.8361 25.5155 34.2503H27.1821ZM24.7655 36.667C26.1002 36.667 27.1821 35.585 27.1821 34.2503H25.5155C25.5155 34.6646 25.1797 35.0004 24.7655 35.0004V36.667ZM15.2337 36.667H24.7655V35.0004H15.2337V36.667ZM12.8171 34.2503C12.8171 35.585 13.899 36.667 15.2337 36.667V35.0004C14.8195 35.0004 14.4837 34.6646 14.4837 34.2503H12.8171ZM15.2337 31.8337C13.899 31.8337 12.8171 32.9156 12.8171 34.2503H14.4837C14.4837 33.8361 14.8195 33.5003 15.2337 33.5003V31.8337ZM18.412 31.8337H15.2337V33.5003H18.412V31.8337ZM17.5786 29.389V32.667H19.2453V29.389H17.5786ZM18.5299 28.5641C14.8016 28.0308 11.7156 25.4939 10.4022 22.0772L8.84647 22.6752C10.3723 26.6444 13.9556 29.5935 18.294 30.214L18.5299 28.5641ZM32.6585 15.2411C32.6585 16.5289 31.882 17.6371 30.7683 18.1195L31.4307 19.6489C33.1322 18.9118 34.3252 17.2167 34.3252 15.2411H32.6585ZM32.6585 11.2946V15.2411H34.3252V11.2946H32.6585ZM32.6982 11.3343C32.6763 11.3343 32.6585 11.3165 32.6585 11.2946H34.3252C34.3252 10.3961 33.5968 9.66764 32.6982 9.66764V11.3343ZM31.1103 11.3343H32.6982V9.66764H31.1103V11.3343ZM30.2769 10.501V18.3904H31.9436V10.501H30.2769ZM30.2769 18.3904C30.2769 18.5437 30.2736 18.6962 30.2669 18.8478L31.932 18.9206C31.9397 18.7448 31.9436 18.568 31.9436 18.3904H30.2769Z" fill="url(#paint1_linear_10096_4750)" mask="url(#path-1-inside-1_10096_4750)"/>
    <path d="M22.4743 20.0001C22.36 20.0001 22.2458 19.9704 22.1221 19.901L20.1992 18.851C20.1516 18.8213 20.0849 18.8014 20.0088 18.8014C19.9422 18.8014 19.866 18.8213 19.8184 18.8411L17.9051 19.901C17.7908 19.9704 17.6766 20.0001 17.5433 20.0001C17.3149 20.0001 17.0959 19.8911 16.9436 19.7128C16.7913 19.5345 16.7342 19.2968 16.7723 19.059L17.1435 16.84C17.1626 16.7013 17.115 16.5626 17.0198 16.4636L15.4777 14.9083C15.2587 14.6904 15.1826 14.3733 15.2778 14.0762C15.373 13.779 15.611 13.5709 15.906 13.5214L18.0383 13.1945C18.1716 13.1747 18.2953 13.0855 18.3525 12.9667L19.3044 10.9458C19.4376 10.6684 19.7042 10.5 19.9993 10.5C20.2944 10.5 20.5609 10.6684 20.6942 10.9458L21.6461 12.9667C21.7127 13.0954 21.8269 13.1747 21.9602 13.1945L24.0925 13.5214C24.3876 13.5709 24.6256 13.779 24.7208 14.0663C24.816 14.3634 24.7398 14.6804 24.5304 14.8984L22.9978 16.4636C22.8931 16.5626 22.855 16.7013 22.8741 16.84L23.2358 19.0491C23.2739 19.2868 23.2167 19.5246 23.0644 19.7029C22.9217 19.8911 22.7027 20.0001 22.4743 20.0001Z" fill="#1C1A3F"/>
    <rect width="40" height="40" rx="10" fill="url(#paint2_linear_10096_4750)"/>
    <rect x="14.9208" y="30.1328" width="10.1587" height="2.53336" rx="1.26668" fill="#05012B"/>
    <rect x="18.7298" y="26.9668" width="2.53968" height="3.1667" fill="#4E5274"/>
    <path fill-rule="evenodd" clip-rule="evenodd" d="M7.93683 9.23145C7.23552 9.23145 6.66699 9.79997 6.66699 10.5013V16.8189C6.66699 19.6241 8.9411 21.8982 11.7464 21.8982H12.3813V19.3652C10.6281 19.3651 9.20688 17.9438 9.20688 16.1906V13.0334C9.20688 12.6827 9.49114 12.3984 9.8418 12.3984H12.3813V9.23145H7.93683Z" fill="#4E5274"/>
    <path fill-rule="evenodd" clip-rule="evenodd" d="M32.0635 9.23145C32.7648 9.23145 33.3333 9.79997 33.3333 10.5013V16.8189C33.3333 19.6241 31.0592 21.8982 28.254 21.8982H27.6191V19.3652C29.3722 19.3651 30.7935 17.9438 30.7935 16.1906V13.0334C30.7935 12.6827 30.5092 12.3984 30.1585 12.3984H27.6191V9.23145H32.0635Z" fill="#4E5274"/>
    <path d="M11.111 9.87269C11.111 8.47006 12.248 7.33301 13.6507 7.33301H26.3491C27.7517 7.33301 28.8888 8.47006 28.8888 9.87269V18.711C28.8888 23.6202 24.9091 27.5999 19.9999 27.5999C15.0907 27.5999 11.111 23.6202 11.111 18.711V9.87269Z" fill="#05012B"/>
    <path d="M21.9798 19.9995C21.8884 19.9995 21.797 19.9757 21.698 19.9202L20.1597 19.0802C20.1216 19.0564 20.0683 19.0406 20.0074 19.0406C19.9541 19.0406 19.8932 19.0564 19.8551 19.0723L18.3244 19.9202C18.233 19.9757 18.1416 19.9995 18.035 19.9995C17.8523 19.9995 17.6771 19.9123 17.5552 19.7697C17.4334 19.627 17.3877 19.4368 17.4182 19.2466L17.7152 17.4714C17.7304 17.3605 17.6923 17.2495 17.6162 17.1703L16.3825 15.926C16.2073 15.7517 16.1464 15.4981 16.2226 15.2603C16.2987 15.0226 16.4891 14.8562 16.7252 14.8165L18.431 14.555C18.5376 14.5392 18.6366 14.4678 18.6823 14.3727L19.4438 12.756C19.5505 12.5341 19.7637 12.3994 19.9998 12.3994C20.2358 12.3994 20.4491 12.5341 20.5557 12.756L21.3172 14.3727C21.3705 14.4758 21.4619 14.5392 21.5685 14.555L23.2744 14.8165C23.5104 14.8562 23.7008 15.0226 23.777 15.2524C23.8531 15.4902 23.7922 15.7438 23.6247 15.9181L22.3986 17.1703C22.3148 17.2495 22.2844 17.3605 22.2996 17.4714L22.589 19.2387C22.6194 19.4289 22.5737 19.6191 22.4519 19.7617C22.3377 19.9123 22.1625 19.9995 21.9798 19.9995Z" fill="url(#paint3_linear_10096_4750)"/>
  </g>
  <defs>
    <linearGradient id="paint0_linear_10096_4750" x1="19.9997" y1="4.16797" x2="19.9997" y2="35.8337" gradientUnits="userSpaceOnUse">
      <stop stop-color="#FFCC25"/>
      <stop offset="1" stop-color="#FF8F0E"/>
    </linearGradient>
    <linearGradient id="paint1_linear_10096_4750" x1="19.9997" y1="4.16797" x2="19.9997" y2="35.8337" gradientUnits="userSpaceOnUse">
      <stop stop-color="#FFF68C"/>
      <stop offset="1" stop-color="#FFC37F"/>
    </linearGradient>
    <linearGradient id="paint2_linear_10096_4750" x1="20" y1="0" x2="20" y2="40" gradientUnits="userSpaceOnUse">
      <stop stop-color="#ECF5FE"/>
      <stop offset="1" stop-color="#A5B6D4"/>
    </linearGradient>
    <linearGradient id="paint3_linear_10096_4750" x1="19.9999" y1="12.3994" x2="19.9999" y2="19.9995" gradientUnits="userSpaceOnUse">
      <stop stop-color="#ECF5FE"/>
      <stop offset="1" stop-color="#A5B6D4"/>
    </linearGradient>
    <clipPath id="clip0_10096_4750">
      <rect width="40" height="40" fill="white"/>
    </clipPath>
  </defs>
</svg>