<svg xmlns="http://www.w3.org/2000/svg" width="40" height="40" viewBox="0 0 40 40" fill="none">
  <rect width="40" height="40" rx="10" fill="url(#paint0_linear_10002_26745)"/>
  <path fill-rule="evenodd" clip-rule="evenodd" d="M12.8446 12.1212V10.6824L13.2535 10.2713L12.6402 10.2713C12.6217 10.2154 12.6031 10.1562 12.5837 10.0941C12.3887 9.47017 12.1017 8.55243 10.8002 7.80469C10.8002 7.80469 13.2159 7.99943 14.6845 8.42133C15.8294 8.7502 16.7971 9.24352 17.1378 9.44906C17.3422 9.24352 18.3644 8.62688 19.7955 8.62688C21.0692 8.62688 21.8398 9.24352 22.2487 9.65461C23.0665 10.0657 24.9064 11.0112 25.7241 11.5045C26.5419 11.9979 27.0189 12.2582 27.1552 12.3267C27.7004 12.3953 28.9951 12.8749 29.404 13.56C29.8129 14.2452 29.8129 14.9989 29.8129 15.2044L30.4262 16.2321C30.4943 16.3692 30.5897 16.6844 30.4262 16.8488L29.404 17.8765C29.404 18.0821 29.4449 18.5754 29.6084 18.9043C29.8129 19.3154 30.0173 19.7265 30.0173 20.1376C30.0173 20.4664 29.7447 20.9598 29.6084 21.1653C29.8129 21.7134 30.2626 22.8508 30.4262 23.0152C30.6306 23.2208 30.7669 23.2208 30.8351 23.2208C30.9032 23.2208 31.1213 23.1797 31.4484 23.0152C31.5295 22.9744 31.6268 22.8932 31.7513 22.7891C32.2543 22.3688 33.2024 21.5764 35.3327 21.5764C35.3327 21.5764 35.3327 21.782 34.7194 22.193C34.7194 22.193 34.7603 22.3986 34.9238 22.3986C34.9551 22.3986 34.8079 22.5295 34.5869 22.7259C34.1887 23.0798 33.5513 23.6464 33.2883 24.043C33.2883 24.043 32.8794 24.043 32.675 24.4541C32.6547 24.4949 32.6237 24.5074 32.5834 24.5235C32.5078 24.5538 32.3994 24.5972 32.2661 24.8652C32.2218 24.9542 32.1246 24.957 32.036 24.9596C31.9417 24.9623 31.8573 24.9647 31.8573 25.0707C31.8573 25.1735 31.755 25.2249 31.6528 25.2763C31.5506 25.3277 31.4484 25.379 31.4484 25.4818V25.8929C31.4484 27.5373 30.8351 29.5928 30.8351 29.5928C30.8351 29.5928 30.6306 28.565 30.4262 28.565C30.3581 28.565 30.3126 28.5422 30.2823 28.527C30.2218 28.4965 30.2218 28.4965 30.2218 28.7706C30.2218 29.1817 29.404 26.7151 29.404 25.8929C29.404 25.83 29.3624 25.903 29.2628 26.0774C28.9107 26.6946 27.8342 28.5813 25.3153 30.2094C22.4531 32.0594 16.8671 31.3261 14.0712 28.7706C11.681 26.5858 11.2385 25.6378 10.6899 24.4626C10.5968 24.2631 10.5006 24.0571 10.3914 23.8374C10.2671 23.5876 9.72769 23.5655 9.11709 23.5405C8.7229 23.5243 8.29904 23.507 7.93812 23.4263C6.09819 23.0152 5.28042 22.3986 4.87156 21.1653C4.58245 20.2933 4.61297 17.9854 4.87156 17.4654C5.07598 17.0543 5.28044 17.4654 5.48488 18.2876C5.68931 19.1098 6.09819 19.932 6.91594 19.932C7.91422 19.932 8.6417 19.4782 9.20856 19.1246C9.33821 19.0437 9.45946 18.968 9.57362 18.9043C9.8462 17.3969 10.882 13.93 12.8446 12.1212ZM19.3869 15.6141C20.9676 15.6141 22.249 14.3257 22.249 12.7364C22.249 11.1471 20.9676 9.85872 19.3869 9.85872C17.8062 9.85872 16.5247 11.1471 16.5247 12.7364C16.5247 14.3257 17.8062 15.6141 19.3869 15.6141Z" fill="#05012B"/>
  <path d="M27.5269 16.9487C27.5259 17.1065 27.312 16.9487 26.8848 16.9487C26.531 16.9487 26.3544 17.2685 26.2445 17.1591C26.1346 17.0496 26.531 16.5278 26.8848 16.5278C27.2387 16.5278 27.5279 16.7908 27.5269 16.9487Z" fill="url(#paint1_linear_10002_26745)"/>
  <path d="M17.7321 17.9176C17.9369 18.1013 19.5753 20.3063 23.6713 20.8575C26.5484 21.2447 27.7414 20.8103 28.0821 20.4499C28.1168 20.399 28.1469 20.3513 28.177 20.3063C28.1603 20.3511 28.1294 20.3998 28.0821 20.4499C27.881 20.7452 27.5265 21.1493 26.1289 21.7762C26.0122 21.8286 27.153 22.3275 26.7434 23.0625C26.3337 23.7974 24.9001 24.5324 23.0569 24.3487C21.2137 24.1649 19.2134 23.0348 18.1417 21.5925C17.3225 20.49 16.9129 19.2038 17.5273 18.6526C17.662 18.5317 17.459 17.9788 17.1177 17.9176C17.2542 17.8563 17.5682 17.7706 17.7321 17.9176Z" fill="url(#paint2_linear_10002_26745)"/>
  <path d="M21.4322 12.1225C21.4322 12.4631 21.1576 12.7391 20.8189 12.7391C20.4802 12.7391 20.2056 12.4631 20.2056 12.1225C20.2056 11.7819 20.4802 11.5059 20.8189 11.5059C21.1576 11.5059 21.4322 11.7819 21.4322 12.1225Z" fill="black"/>
  <path fill-rule="evenodd" clip-rule="evenodd" d="M20.7314 13.1546C21.296 13.1546 21.7536 12.6945 21.7536 12.1269C21.7536 11.5593 21.296 11.0991 20.7314 11.0991C20.1669 11.0991 19.7092 11.5593 19.7092 12.1269C19.7092 12.6945 20.1669 13.1546 20.7314 13.1546ZM20.8186 12.7393C21.1573 12.7393 21.4319 12.4632 21.4319 12.1227C21.4319 11.7821 21.1573 11.506 20.8186 11.506C20.4798 11.506 20.2052 11.7821 20.2052 12.1227C20.2052 12.4632 20.4798 12.7393 20.8186 12.7393Z" fill="white"/>
  <path fill-rule="evenodd" clip-rule="evenodd" d="M22.0313 13.8399C22.1715 13.5004 22.2488 13.128 22.2488 12.7375C22.2488 11.1482 20.9674 9.85986 19.3867 9.85986C17.8995 9.85986 16.6773 11.0003 16.5378 12.4587C16.9681 11.4165 17.9901 10.6834 19.1824 10.6834C20.7631 10.6834 22.0446 11.9718 22.0446 13.5611C22.0446 13.6552 22.0401 13.7482 22.0313 13.8399Z" fill="white"/>
  <defs>
    <linearGradient id="paint0_linear_10002_26745" x1="20" y1="0" x2="20" y2="40" gradientUnits="userSpaceOnUse">
      <stop stop-color="#ECF5FE"/>
      <stop offset="1" stop-color="#A5B6D4"/>
    </linearGradient>
    <linearGradient id="paint1_linear_10002_26745" x1="26.8764" y1="16.5278" x2="26.8764" y2="17.1819" gradientUnits="userSpaceOnUse">
      <stop stop-color="#ECF5FE"/>
      <stop offset="1" stop-color="#A5B6D4"/>
    </linearGradient>
    <linearGradient id="paint2_linear_10002_26745" x1="22.6473" y1="17.8364" x2="22.6473" y2="24.3772" gradientUnits="userSpaceOnUse">
      <stop stop-color="#ECF5FE"/>
      <stop offset="1" stop-color="#A5B6D4"/>
    </linearGradient>
  </defs>
</svg>