<svg xmlns="http://www.w3.org/2000/svg" width="40" height="40" viewBox="0 0 40 40" fill="none">
<rect width="40" height="40" rx="10" fill="url(#paint0_linear_10002_24271)"/>
<path d="M27.9449 27.2248C27.7872 27.2423 27.6208 27.273 27.4456 27.3168C27.2704 27.3606 27.1128 27.4087 26.9726 27.4613C26.7974 27.5314 26.631 27.6102 26.4734 27.6978C26.4383 27.5051 26.4471 27.3124 26.4996 27.1197C26.5347 26.9445 26.6047 26.7606 26.7099 26.5679C26.815 26.3752 26.9902 26.1824 27.2354 25.9897C27.6734 25.6919 28.1945 25.508 28.7989 25.4379C29.4033 25.3678 29.9683 25.4379 30.4938 25.6481C31.0194 25.8584 31.4311 26.2219 31.7289 26.7387C32.0267 27.2555 32.0793 27.9606 31.8866 28.854C31.7289 29.5723 31.4048 30.2248 30.9143 30.8117C30.4238 31.3986 29.7712 31.8497 28.9566 32.165C28.142 32.4803 27.1829 32.6292 26.0792 32.6117C24.9755 32.5942 23.7405 32.349 22.374 31.876C21.428 31.5431 20.6835 31.127 20.1404 30.6278C19.5974 30.1285 19.19 29.6161 18.9185 29.0905C18.647 28.565 18.4849 28.0701 18.4324 27.6058C18.3798 27.1416 18.3711 26.7781 18.4061 26.5153C18.4411 26.2525 18.5506 25.9284 18.7346 25.543C18.9185 25.1576 19.1068 24.7897 19.2995 24.4394C19.5273 24.0189 19.7813 23.5897 20.0616 23.1518C20.2017 22.924 20.3244 22.705 20.4295 22.4948C20.5171 22.3021 20.5871 22.1094 20.6397 21.9167C20.6923 21.724 20.6923 21.5401 20.6397 21.3649C20.4645 20.9094 20.2455 20.559 19.9828 20.3138C19.72 20.0685 19.466 19.8846 19.2207 19.7619C18.9229 19.6393 18.6163 19.5692 18.301 19.5517C17.863 19.5342 17.4601 19.4816 17.0922 19.394C16.7769 19.3064 16.4659 19.1926 16.1594 19.0524C15.8528 18.9123 15.6294 18.6933 15.4893 18.3955C15.3316 18.0977 15.2659 17.7911 15.2922 17.4758C15.3185 17.1604 15.3798 16.8495 15.4761 16.5429C15.5725 16.2363 15.6732 15.9429 15.7783 15.6626C15.8834 15.3823 15.936 15.137 15.936 14.9268C15.936 14.3662 15.6382 13.9721 15.0425 13.7443C14.2717 13.5516 13.6936 13.4728 13.3082 13.5078C12.9228 13.5429 12.6513 13.6173 12.4936 13.7312C12.3359 13.8451 12.2571 13.9502 12.2571 14.0465C12.2571 14.1429 12.2571 14.156 12.2571 14.0859C12.2571 14.3312 12.2878 14.6465 12.3491 15.0319C12.4104 15.4173 12.3797 15.7852 12.2571 16.1356C12.1695 16.3458 12.0513 16.5429 11.9024 16.7269C11.7535 16.9108 11.6264 17.0816 11.5213 17.2393C11.3812 17.467 11.2629 17.6641 11.1666 17.8305C11.0702 17.9969 11.0308 18.1064 11.0483 18.159C11.0834 18.2291 11.1666 18.2772 11.298 18.3035C11.4294 18.3298 11.5301 18.3604 11.6002 18.3955C11.6878 18.448 11.7447 18.5313 11.771 18.6451C11.7973 18.759 11.8629 18.8597 11.9681 18.9473C12.1432 19.1225 12.2484 19.2714 12.2834 19.394C12.3009 19.4641 12.3009 19.5254 12.2834 19.578C12.2834 19.7181 12.2921 19.8846 12.3097 20.0773C12.3272 20.2349 12.3491 20.4145 12.3754 20.616C12.4016 20.8174 12.4411 21.0145 12.4936 21.2072C12.5987 21.6627 12.7214 21.9824 12.8615 22.1663C13.0016 22.3503 13.1725 22.4642 13.3739 22.5079C13.5754 22.5517 13.8163 22.5561 14.0966 22.5211C14.3768 22.4861 14.7185 22.4685 15.1214 22.4685C15.4192 22.486 15.7258 22.4948 16.0411 22.4948C16.3564 22.4948 16.6367 22.5649 16.882 22.705C17.1272 22.8452 17.32 23.0379 17.4601 23.2831C17.6002 23.5284 17.7141 23.7737 17.8017 24.0189C17.8718 24.3167 17.9243 24.6233 17.9594 24.9386C18.0119 25.3416 18.0382 25.7445 18.0382 26.1474C18.0382 26.4978 18.0207 26.8788 17.9857 27.2905C17.9506 27.7022 17.863 28.1095 17.7229 28.5124C17.4251 29.3358 16.9871 29.9489 16.409 30.3518C15.8309 30.7548 15.209 31.0175 14.5433 31.1402C13.8425 31.2803 13.1768 31.2978 12.5462 31.1927C11.9155 31.0876 11.3462 30.9124 10.8381 30.6672C10.3301 30.4219 9.91402 30.1241 9.58992 29.7737C9.26583 29.4234 9.06875 29.073 8.99868 28.7226C8.94612 28.4423 8.94174 28.1664 8.98554 27.8949C9.02933 27.6233 9.09503 27.3606 9.18262 27.1065C9.27021 26.8525 9.37532 26.6117 9.49795 26.3839C9.62058 26.1562 9.72569 25.9372 9.81328 25.727C9.97095 25.3941 10.0673 25.1007 10.1023 24.8467C10.1374 24.5926 10.1374 24.378 10.1023 24.2029C10.0673 24.0102 9.99723 23.835 9.89212 23.6773C9.73445 23.5021 9.56803 23.3182 9.39284 23.1255C9.25269 22.9503 9.10379 22.762 8.94612 22.5605C8.78845 22.359 8.65706 22.1357 8.55195 21.8904C8.20158 21.1722 8.01764 20.5065 8.00012 19.8933C8.00012 19.6305 8.0045 19.3108 8.01326 18.9342C8.02202 18.5575 8.08771 18.2028 8.21034 17.8699C8.31545 17.5896 8.57385 17.2174 8.98554 16.7531C9.39722 16.2889 9.85708 15.6889 10.3651 14.9531C10.4702 14.7429 10.5622 14.5239 10.641 14.2962C10.7199 14.0684 10.7812 13.8582 10.825 13.6655C10.8688 13.4728 10.8994 13.3064 10.9169 13.1662C10.9345 13.0261 10.9432 12.9297 10.9432 12.8772C10.9432 12.702 10.9345 12.5093 10.9169 12.2991C10.8994 12.0888 10.8819 11.8699 10.8644 11.6421C10.8644 11.537 10.8556 11.3618 10.8381 11.1166C10.8206 10.8713 10.8425 10.5998 10.9038 10.3019C10.9651 10.0041 11.0746 9.70194 11.2323 9.39537C11.3899 9.0888 11.6352 8.81288 11.9681 8.56762C12.2308 8.37492 12.5418 8.23915 12.9009 8.16032C13.26 8.08148 13.5973 8.03331 13.9126 8.01579C14.2805 7.99827 14.6659 8.00703 15.0688 8.04207C15.4017 7.91944 15.752 7.82309 16.1199 7.75301C16.4353 7.68294 16.8032 7.62162 17.2236 7.56907C17.644 7.51651 18.082 7.49023 18.5375 7.49023C20.0616 7.52527 21.3404 7.75739 22.374 8.18659C23.4076 8.6158 24.2573 9.14135 24.923 9.76326C25.5887 10.3852 26.0967 11.0596 26.4471 11.7866C26.7974 12.5137 27.0515 13.1881 27.2091 13.81C27.3668 14.4319 27.4588 14.9575 27.485 15.3867C27.5113 15.8159 27.5245 16.0393 27.5245 16.0568C27.542 16.3546 27.6471 16.6261 27.8398 16.8714C28.0325 17.1166 28.2559 17.3663 28.5099 17.6203C28.7639 17.8743 29.0267 18.1327 29.2982 18.3955C29.5697 18.6583 29.8019 18.9473 29.9946 19.2627C30.3625 19.9284 30.5639 20.524 30.599 21.0495C30.634 21.5751 30.5639 22.0393 30.3887 22.4423C30.2135 22.8452 29.9683 23.1912 29.653 23.4802C29.3376 23.7693 29.0179 24.0102 28.6938 24.2029C28.3697 24.3956 28.0719 24.5445 27.8004 24.6496C27.5288 24.7547 27.358 24.8248 27.288 24.8598C26.7099 25.1226 26.2675 25.4116 25.9609 25.727C25.6544 26.0423 25.4485 26.3576 25.3434 26.673C25.2383 26.9883 25.2164 27.2949 25.2777 27.5927C25.339 27.8905 25.466 28.1445 25.6587 28.3547C25.7814 28.5124 25.939 28.6438 26.1317 28.7489C26.3244 28.854 26.5215 28.9328 26.723 28.9854C26.9245 29.038 27.1172 29.0686 27.3011 29.0774C27.485 29.0861 27.6383 29.073 27.761 29.038C28.0413 28.9854 28.2734 28.8584 28.4573 28.6569C28.6413 28.4555 28.7508 28.2409 28.7858 28.0131C28.8208 27.7854 28.7727 27.5927 28.6413 27.435C28.5099 27.2774 28.2778 27.2073 27.9449 27.2248Z" fill="#05012B"/>
<defs>
<linearGradient id="paint0_linear_10002_24271" x1="20" y1="0" x2="20" y2="40" gradientUnits="userSpaceOnUse">
<stop stop-color="#ECF5FE"/>
<stop offset="1" stop-color="#A5B6D4"/>
</linearGradient>
</defs>
</svg>