<svg xmlns="http://www.w3.org/2000/svg" width="40" height="40" viewBox="0 0 40 40" fill="none">
  <rect width="40" height="40" rx="10" fill="url(#paint0_linear_10002_29231)"/>
  <rect x="5.93091" y="8.85742" width="17.6261" height="23.5723" rx="2.4424" transform="rotate(-6.8717 5.93091 8.85742)" fill="#4E5274"/>
  <path fill-rule="evenodd" clip-rule="evenodd" d="M19.1496 18.2913C17.9551 17.3646 15.6072 15.5113 15.6072 15.5113C15.6072 15.5113 13.7131 17.9225 12.8265 19.0531C12.5376 19.482 12.4008 20.0127 12.4675 20.5664C12.6151 21.7916 13.7275 22.6648 14.9527 22.5171C15.5151 22.4494 16.0035 22.1781 16.3526 21.7865C16.3069 22.4837 15.6453 23.5303 14.9113 23.7025L18.2333 23.3023C17.4781 23.3197 16.5975 22.4687 16.379 21.7853C16.8107 22.0817 17.3486 22.2285 17.9099 22.1608C19.1351 22.0132 20.0083 20.9009 19.8606 19.6757C19.7939 19.1219 19.5322 18.6393 19.1496 18.2913Z" fill="url(#paint1_linear_10002_29231)"/>
  <path fill-rule="evenodd" clip-rule="evenodd" d="M10.1378 11.1871C9.80075 10.9256 9.1383 10.4027 9.1383 10.4027C9.1383 10.4027 8.60387 11.083 8.3537 11.402C8.27218 11.523 8.23359 11.6728 8.25241 11.829C8.29406 12.1747 8.60792 12.4211 8.95361 12.3794C9.1118 12.3604 9.24923 12.2843 9.34766 12.1743C9.33406 12.371 9.14775 12.6652 8.94107 12.7137L9.8784 12.6007C9.66515 12.6057 9.41643 12.3651 9.35505 12.1722C9.47702 12.2563 9.62919 12.298 9.78802 12.2789C10.1337 12.2372 10.3801 11.9234 10.3384 11.5777C10.3196 11.4214 10.2457 11.2853 10.1378 11.1871Z" fill="url(#paint2_linear_10002_29231)"/>
  <rect x="17.2632" y="6.11182" width="16.823" height="23.5723" rx="2.4424" transform="rotate(7.77857 17.2632 6.11182)" fill="#05012B"/>
  <path fill-rule="evenodd" clip-rule="evenodd" d="M19.6486 10.4103C19.6486 10.4103 19.1685 9.77475 18.9232 9.45557C18.8481 9.34016 18.8131 9.19819 18.8332 9.05103C18.8777 8.72545 19.1776 8.49769 19.5032 8.54217C19.6541 8.5628 19.7841 8.63841 19.8756 8.74589C19.9925 8.66688 20.138 8.62891 20.289 8.64954C20.6146 8.69402 20.8423 8.99387 20.7979 9.31945C20.7778 9.46661 20.7068 9.59411 20.6035 9.68514C20.2989 9.9167 19.6486 10.4103 19.6486 10.4103ZM23.5393 22.3357C23.5393 22.3357 21.7365 19.9489 20.8152 18.7503C20.5331 18.3168 20.4019 17.7837 20.4774 17.231C20.6445 16.0083 21.7705 15.153 22.9932 15.32C23.5603 15.3975 24.0485 15.6815 24.3919 16.0851C24.8309 15.7884 25.3774 15.6458 25.9444 15.7233C27.1672 15.8903 28.0225 17.0164 27.8554 18.2391C27.7799 18.7917 27.5134 19.2706 27.1254 19.6124C25.9816 20.482 23.5393 22.3357 23.5393 22.3357ZM28.9931 28.3029C28.7899 27.9554 28.3935 27.2645 28.3935 27.2645C28.3935 27.2645 27.6863 27.6725 27.355 27.8639C27.2411 27.9413 27.1546 28.0588 27.1162 28.2023C27.0312 28.5197 27.2194 28.8458 27.5368 28.9309C27.684 28.9703 27.8332 28.9509 27.9591 28.8872C28.0363 29.0053 28.1558 29.0967 28.303 29.1361C28.6204 29.2212 28.9465 29.0329 29.0315 28.7155C29.07 28.572 29.0531 28.4268 28.9931 28.3029Z" fill="url(#paint3_linear_10002_29231)"/>
  <defs>
    <linearGradient id="paint0_linear_10002_29231" x1="20" y1="0" x2="20" y2="40" gradientUnits="userSpaceOnUse">
      <stop stop-color="#ECF5FE"/>
      <stop offset="1" stop-color="#A5B6D4"/>
    </linearGradient>
    <linearGradient id="paint1_linear_10002_29231" x1="15.6087" y1="15.5112" x2="16.5715" y2="23.5024" gradientUnits="userSpaceOnUse">
      <stop stop-color="#ECF5FE"/>
      <stop offset="1" stop-color="#A5B6D4"/>
    </linearGradient>
    <linearGradient id="paint2_linear_10002_29231" x1="9.13871" y1="10.4027" x2="9.41033" y2="12.6571" gradientUnits="userSpaceOnUse">
      <stop stop-color="#ECF5FE"/>
      <stop offset="1" stop-color="#A5B6D4"/>
    </linearGradient>
    <linearGradient id="paint3_linear_10002_29231" x1="23.9399" y1="8.53662" x2="23.9399" y2="29.1566" gradientUnits="userSpaceOnUse">
      <stop stop-color="#ECF5FE"/>
      <stop offset="1" stop-color="#A5B6D4"/>
    </linearGradient>
  </defs>
</svg>