<svg xmlns="http://www.w3.org/2000/svg" viewBox="0 0 48 28" width="220" height="130" fill="none">
  <path
    fill-rule="evenodd"
    clip-rule="evenodd"
    d="M44.3345 2.47059C44.3345 2.57115 44.3284 2.67032 44.3166 2.76773C45.1351 3.5954 45.7981 4.81163 46.551 6.86283C47.3071 8.92275 47.4185 11.2382 47.3249 13.112C47.4636 13.6175 47.5791 14.1858 47.6596 14.8235V16.4706V18.1176C47.6596 21.1373 45.997 23.0588 45.997 23.0588C45.997 23.0588 45.178 23.8702 44.3529 24.1507C43.2807 27.1286 41.7029 28 41.0047 28H32.4196C32.4196 28 34.3592 26.6275 34.3592 16.4706C34.3592 6.31373 32.1425 4.94118 32.1425 4.94118H41.0047C41.7436 4.94116 43.4678 5.9172 44.5351 9.33333H44.8887C44.8887 9.33333 45.1166 9.44625 45.4446 9.74449C45.0423 8.04228 43.024 5.39015 42.1176 4.94115L42.112 4.93551L42.1045 4.92751C42.0178 4.93655 41.9298 4.94118 41.8407 4.94118C40.4634 4.94118 39.3469 3.83506 39.3469 2.47059C39.3469 1.10612 40.4634 0 41.8407 0C43.218 0 44.3345 1.10612 44.3345 2.47059Z
       M3.19266 24.1086C2.40779 23.7971 1.66254 23.0588 1.66254 23.0588C1.66254 23.0588 0 21.1373 0 18.1176V16.4706V14.8235C0.554181 10.4314 2.77091 9.33333 2.77091 9.33333H3.1877C3.72876 7.67702 4.54266 6.24839 5.73962 5.4199C6.2972 5.03397 6.97712 4.94118 7.6573 4.94118H15.7942C15.7942 4.94118 13.3003 5.61029 13.3003 16.4706C13.3003 27.3309 15.5171 28 15.5171 28H7.65711C6.97693 28 6.30146 27.9043 5.72691 27.5436C4.54065 26.799 3.73188 25.6083 3.19266 24.1086Z
       M14.1316 16.4706C14.1316 6.03922 16.3483 4.94118 16.3483 4.94118H31.4844C31.4844 4.94118 33.7011 6.03922 33.7011 16.4706C33.7011 26.902 31.5883 28 31.5883 28H16.0713C16.0713 28 14.1316 26.902 14.1316 16.4706Z
       M16.6658 8.80903 ... (rest of path unchanged)"
    fill="#00ECBE"
  />
</svg>