<svg xmlns="http://www.w3.org/2000/svg" width="40" height="40" viewBox="0 0 40 40" fill="none">
  <rect width="40" height="40" rx="10" fill="url(#paint0_linear_10002_16686)"/>
  <path d="M30.5333 12.6461C27.4244 9.6764 24.9806 11.3933 22.6915 12.1821C21.8307 12.4841 20.9049 12.5378 20.0002 12.5378C19.0941 12.5378 18.172 12.4797 17.3089 12.1821C15.0197 11.3933 12.5759 9.6764 9.46698 12.6461C6.31166 15.6777 5.16709 23.0092 5.35269 26.0871C5.5383 29.1806 8.49254 30.6345 11.1374 28.4072C13.6577 26.3007 16.3507 22.1739 20.0002 22.1739C23.6597 22.1739 26.3417 26.2874 28.8629 28.4072C31.5078 30.6345 34.462 29.1806 34.6476 26.0871C34.8332 23.0092 33.6887 15.6777 30.5333 12.6616V12.6461Z" fill="#05012B"/>
  <path fill-rule="evenodd" clip-rule="evenodd" d="M12.8573 14.8491C12.6733 14.8491 12.524 14.9984 12.524 15.1825V16.48L11.2251 16.48C11.041 16.48 10.8917 16.6292 10.8917 16.8133L10.8917 17.8872C10.8917 18.0713 11.041 18.2205 11.2251 18.2205H12.524V19.5193C12.524 19.7033 12.6733 19.8526 12.8573 19.8526H13.9312C14.1153 19.8526 14.2645 19.7033 14.2645 19.5193V18.2205H15.5619C15.7459 18.2205 15.8952 18.0713 15.8952 17.8872V16.8133C15.8952 16.6292 15.7459 16.48 15.5619 16.48L14.2645 16.48V15.1825C14.2645 14.9984 14.1153 14.8491 13.9312 14.8491H12.8573Z" fill="url(#paint1_linear_10002_16686)"/>
  <circle cx="25.3535" cy="18.4826" r="1.36928" fill="url(#paint2_linear_10002_16686)"/>
  <circle cx="28.0919" cy="16.2179" r="1.36928" fill="url(#paint3_linear_10002_16686)"/>
  <path d="M22.546 11.6011C22.2849 11.5488 20.4454 11.5264 20.0026 11.5264C19.5598 11.5264 17.7203 11.5488 17.4592 11.6011C17.2775 11.6385 17.3116 11.7805 17.3343 11.8403C17.3797 12.0196 17.9247 14.1123 18.1177 14.5159C18.1745 14.643 18.2767 14.8298 18.6741 14.8448C19.0148 14.8523 19.2305 14.8298 20.0026 14.8224C20.7747 14.8224 20.8996 14.8597 21.2402 14.8448C21.6377 14.8298 21.7398 14.643 21.7966 14.5159C21.9896 14.1123 22.6255 12.0196 22.6709 11.8403C22.6823 11.7805 22.7277 11.6385 22.546 11.6011Z" fill="#91A2BF"/>
  <defs>
    <linearGradient id="paint0_linear_10002_16686" x1="20" y1="0" x2="20" y2="40" gradientUnits="userSpaceOnUse">
      <stop stop-color="#ECF5FE"/>
      <stop offset="1" stop-color="#A5B6D4"/>
    </linearGradient>
    <linearGradient id="paint1_linear_10002_16686" x1="13.3935" y1="14.8491" x2="13.3935" y2="19.8526" gradientUnits="userSpaceOnUse">
      <stop stop-color="#ECF5FE"/>
      <stop offset="1" stop-color="#A5B6D4"/>
    </linearGradient>
    <linearGradient id="paint2_linear_10002_16686" x1="25.3535" y1="17.1133" x2="25.3535" y2="19.8518" gradientUnits="userSpaceOnUse">
      <stop stop-color="#ECF5FE"/>
      <stop offset="1" stop-color="#A5B6D4"/>
    </linearGradient>
    <linearGradient id="paint3_linear_10002_16686" x1="28.0919" y1="14.8486" x2="28.0919" y2="17.5872" gradientUnits="userSpaceOnUse">
      <stop stop-color="#ECF5FE"/>
      <stop offset="1" stop-color="#A5B6D4"/>
    </linearGradient>
  </defs>
</svg>